<svg width="382px" height="136px" viewBox="0 0 382 136" version="1.1" xmlns="http://www.w3.org/2000/svg" xmlns:xlink="http://www.w3.org/1999/xlink">
    <g id="logo-black-loading" stroke="none" stroke-width="1" fill="none" fill-rule="evenodd">
        <g id="MIRROR" transform="translate(257.703562, 61.534120)" fill="#fff">
            <polyline id="Fill-1" points="8.41225941 10.1890839 2.90794153 0.286730259 0 0.286730259 0 12.6590281 2.25320314 12.6590281 2.25320314 3.73878196 7.17277191 12.6590281 9.52531467 12.6590281 14.5713157 3.73878196 14.5713157 12.6590281 16.8245188 12.6590281 16.8245188 0.286730259 13.9459276 0.286730259 8.41225941 10.1890839"></polyline>
            <polygon id="Fill-2" points="26.4785235 12.6612858 28.8604165 12.6612858 28.8604165 0.286730259 26.4785235 0.286730259"></polygon>
            <path d="M48.0374781,5.40272055 L40.8218096,5.40272055 L40.8218096,2.53541796 L47.7530056,2.53541796 C48.8796072,2.53541796 49.4056556,2.75667438 49.7465711,3.19918722 C49.9339617,3.42270136 50.0062087,3.69136987 50.0062087,3.99390416 C50.0062087,4.24676864 49.947508,4.51543715 49.7759214,4.79990969 C49.5343455,5.21307219 49.0511938,5.40272055 48.0374781,5.40272055 Z M51.8146413,5.83168708 C52.1307219,5.30789637 52.2752159,4.5944573 52.2752159,3.78845177 C52.2752159,2.88310662 52.0607326,2.23514139 51.6588587,1.69554665 C51.0041203,0.85567534 49.7352825,0.286730259 47.8094486,0.286730259 L38.5121635,0.286730259 L38.5121635,12.6590281 L40.8218096,12.6590281 L40.8218096,7.63786194 L47.1389061,7.63786194 L50.9883163,12.6590281 L53.6569397,12.6590281 L49.5614382,7.31952362 C50.6474008,7.19309138 51.4308291,6.49545634 51.8146413,5.83168708 L51.8146413,5.83168708 Z" id="Fill-3"></path>
            <path d="M118.676977,5.40272055 L111.459051,5.40272055 L111.459051,2.53541796 L118.392504,2.53541796 C119.516848,2.53541796 120.045154,2.75667438 120.388328,3.19918722 C120.573461,3.42270136 120.645708,3.69136987 120.645708,3.99390416 C120.645708,4.24676864 120.587007,4.51543715 120.41542,4.79990969 C120.173844,5.21307219 119.688435,5.40272055 118.676977,5.40272055 Z M120.200937,7.31952362 C121.284642,7.19309138 122.070328,6.49545634 122.456398,5.83168708 C122.770221,5.30789637 122.912457,4.5944573 122.912457,3.78845177 C122.912457,2.88310662 122.697974,2.23514139 122.298358,1.69554665 C121.641361,0.85567534 120.374781,0.286730259 118.44669,0.286730259 L109.151662,0.286730259 L109.151662,12.6590281 L111.459051,12.6590281 L111.459051,7.63786194 L117.776147,7.63786194 L121.625557,12.6590281 L124.296438,12.6590281 L120.200937,7.31952362 L120.200937,7.31952362 Z" id="Fill-5"></path>
            <path d="M97.2173619,8.9699159 C96.1065643,10.1213524 94.5487385,10.597731 92.2842468,10.597731 C90.2139188,10.597731 88.7757521,10.1574759 87.6220579,9.18665688 C86.7212282,8.46192922 86.3351583,7.58819213 86.3351583,6.43224022 C86.3351583,5.43432861 86.6512389,4.54930293 87.364678,3.85166789 C88.2903426,2.88310662 90.0152396,2.29835751 92.2684427,2.29835751 C94.6345318,2.29835751 96.0907603,2.83569453 97.1722075,3.83360614 C97.9443472,4.49963312 98.2152735,5.46593667 98.2152735,6.43224022 C98.2152735,7.38499746 97.9308009,8.27002314 97.2173619,8.9699159 Z M92.2842468,0 C89.3176046,0 87.220184,0.61861489 85.5946266,2.29835751 C84.4431902,3.43624767 83.971327,4.79990969 83.971327,6.40063216 C83.971327,8.25421911 84.6554157,9.68109725 85.8384602,10.726421 C87.3217813,12.0720212 89.4733871,12.8486764 92.2684427,12.8486764 C95.2192809,12.8486764 97.5582774,12.1532991 98.9693515,10.6293391 C100.025964,9.58401535 100.581363,8.15939493 100.581363,6.41869391 C100.581363,4.70508551 100.13885,3.37528927 98.9287125,2.20353333 C97.4024948,0.69763504 95.2621776,0 92.2842468,0 L92.2842468,0 Z" id="Fill-7"></path>
            <path d="M71.4387312,5.40272055 L64.2230626,5.40272055 L64.2230626,2.53541796 L71.1520009,2.53541796 C72.2786025,2.53541796 72.8046509,2.75667438 73.1478241,3.19918722 C73.332957,3.42270136 73.4029463,3.69136987 73.4029463,3.99390416 C73.4029463,4.24676864 73.3465034,4.51543715 73.1749167,4.79990969 C72.9333409,5.21307219 72.4501891,5.40272055 71.4387312,5.40272055 Z M75.2158943,5.83168708 C75.5274595,5.30789637 75.6719535,4.5944573 75.6719535,3.78845177 C75.6719535,2.88310662 75.4574702,2.23514139 75.057854,1.69554665 C74.4008579,0.85567534 73.1320201,0.286730259 71.2084439,0.286730259 L61.9111588,0.286730259 L61.9111588,12.6590281 L64.2230626,12.6590281 L64.2230626,7.63786194 L70.5379015,7.63786194 L74.3873116,12.6590281 L77.0536773,12.6590281 L72.9649489,7.31952362 C74.0463961,7.19309138 74.8298245,6.49545634 75.2158943,5.83168708 L75.2158943,5.83168708 Z" id="Fill-8"></path>
        </g>
        <g id="SEA" transform="translate(62.000000, 61.613140)" fill="#fff">
            <polyline id="Fill-9" points="26.3204832 7.46175989 36.8301631 7.46175989 36.8301631 5.23113394 26.3204832 5.23113394 26.3204832 2.5038099 37.0739967 2.5038099 37.0739967 0.20545239 24.0266411 0.20545239 24.0266411 12.5777502 37.200429 12.5777502 37.200429 10.2658464 26.3204832 10.2658464 26.3204832 7.46175989"></polyline>
            <path d="M10.0355591,5.30789637 C9.49596433,5.26048428 7.77106734,5.10244398 7.10052492,5.05277417 C3.46334029,4.75475532 2.6370153,4.51543715 2.6370153,3.65976181 C2.6370153,2.70926229 3.64847322,2.2486877 7.22921488,2.2486877 C10.3516397,2.2486877 11.4488909,2.67765423 11.9207541,3.35948524 C12.0765367,3.56493763 12.1465259,3.80199808 12.2187729,4.07292431 L14.8151493,4.07292431 C14.713552,3.5491336 14.5148727,3.02534289 14.2010498,2.53541796 C13.2753852,1.12660157 11.2931083,0 7.42789411,0 C2.35254276,0 0.241575888,1.72715471 0.241575888,3.67782356 C0.241575888,5.75266693 1.65490772,6.84540272 6.14550996,7.19309138 C6.65801208,7.24276119 8.16842581,7.33532765 8.76897895,7.39854377 C11.977197,7.65140825 12.7041824,7.99909691 12.7041824,8.9337924 C12.7041824,9.90461139 11.7333634,10.5187108 8.04199357,10.5187108 C5.20404132,10.5187108 3.8652142,10.2500423 3.19467178,9.72850934 C2.79279788,9.41017102 2.6370153,8.99926624 2.55122199,8.47547553 L0,8.47547553 C0.112885929,9.74431337 0.71343907,10.7896371 1.62329966,11.4692104 C2.86504487,12.4039059 4.93311509,12.7696563 8.29711576,12.7696563 C12.9751087,12.7696563 15.1560648,11.3901902 15.1560648,8.80961788 C15.1560648,6.79799063 13.8601343,5.639781 10.0355591,5.30789637" id="Fill-11"></path>
            <path d="M49.8481684,7.58819213 L52.4580911,3.35948524 L53.1286335,2.13805949 L53.7833719,3.35948524 L56.3368516,7.58819213 L49.8481684,7.58819213 Z M51.8868883,0.20545239 L44.4725405,12.5777502 L46.9695772,12.5777502 L48.6651239,9.82333352 L57.5063498,9.82333352 L59.1748039,12.5777502 L61.7553762,12.5777502 L54.512615,0.20545239 L51.8868883,0.20545239 L51.8868883,0.20545239 Z" id="Fill-12"></path>
        </g>
        <polygon id="Line-black" fill="#fff" points="190 136 193 136 193 0 190 0"></polygon>
    </g>
</svg>