<?xml version="1.0" encoding="UTF-8"?>
<svg width="42px" height="42px" viewBox="0 0 42 42" version="1.1" xmlns="http://www.w3.org/2000/svg" xmlns:xlink="http://www.w3.org/1999/xlink">
    <title>3D7EBCCB-6630-42EB-9E19-534400A79BCD_White</title>
    <g id="Full-Site-V5" stroke="none" stroke-width="1" fill="none" fill-rule="evenodd">
        <g id="Menu-4" transform="translate(-1323.000000, -799.000000)">
            <g id="Instagram" transform="translate(1324.000000, 800.000000)">
                <path d="M0,20 C0,8.95430446 8.95430446,0 20,0 C31.0456955,0 40,8.95430446 40,20 C40,31.0456955 31.0456955,40 20,40 C8.95430446,40 0,31.0456955 0,20 Z" id="back" stroke="#000000"></path>
                <path d="M20.8458551,9.33380209 C20.9313008,9.33390987 21.0139649,9.33403742 21.0939981,9.33418595 L21.5438344,9.33533846 C22.5955338,9.33889717 23.1231754,9.34771741 23.6358295,9.36586492 L23.8412986,9.37363102 C24.0138678,9.38053337 24.1923135,9.38853232 24.3954902,9.39777845 C25.5310576,9.44977899 26.3066212,9.62955864 26.9866283,9.89333917 C27.6888579,10.1655642 28.2821974,10.5300125 28.8755369,11.123352 C29.4688764,11.716247 29.8333247,12.3113644 30.1066608,13.0129272 C30.3688858,13.6911565 30.5488877,14.4662757 30.6022216,15.6018431 C30.6478569,16.6177267 30.6633758,17.0163986 30.6661774,19.1521362 L30.6661774,20.8480576 C30.6633758,22.9836433 30.6478569,23.3816067 30.6022216,24.3974903 C30.5488877,25.5326132 30.3688858,26.3079546 30.1066608,26.9864061 C29.8333247,27.6877467 29.4688764,28.2828641 28.8755369,28.8757591 C28.2828641,29.4690986 27.6886356,29.8344358 26.987295,30.1068831 C26.3086213,30.3706636 25.5326132,30.5504432 24.3970458,30.6024438 C23.3811622,30.6486744 22.983376,30.6637256 20.8476701,30.6664201 L19.1517629,30.6664201 C17.0162215,30.6637256 16.6177267,30.6486744 15.6018431,30.6024438 C14.4664979,30.5504432 13.6911565,30.3706636 13.0124828,30.1068831 C12.3113644,29.8344358 11.716247,29.4690986 11.1235742,28.8757591 C10.5304569,28.2828641 10.1660087,27.6877467 9.89333917,26.9861839 C9.62978087,26.3079546 9.45000122,25.5328354 9.39777845,24.397268 C9.35727009,23.5032905 9.34063273,23.0879675 9.33536251,21.5458473 L9.33419761,21.0961258 C9.3340473,21.0161139 9.33391813,20.9334724 9.33380892,20.8480505 L9.33382231,19.1521291 C9.33393429,19.066698 9.33406658,18.9840461 9.33422029,18.9040226 L9.33540843,18.4542175 C9.33906554,17.4025313 9.34803884,16.8744476 9.36605242,16.3615107 L9.37374883,16.1559386 C9.38057901,15.9832929 9.38846883,15.8047976 9.39755622,15.6016209 C9.44866787,14.4664979 9.62866974,13.6911565 9.89311694,13.012705 C10.1664531,12.3113644 10.5309014,11.716247 11.1242409,11.123352 C11.7171359,10.5302347 12.3122533,10.1657864 13.0138161,9.89333917 C13.6920454,9.62955864 14.4671646,9.44977899 15.602732,9.39777845 C15.8059087,9.38853232 15.9843969,9.38053337 16.157031,9.37363102 L16.3625871,9.36586492 C16.8754794,9.34771741 17.4034866,9.33889717 18.4551326,9.33533846 L18.9049238,9.33418595 C18.9849454,9.33403742 19.0675956,9.33390987 19.1530251,9.33380209 Z M19.0441012,11.2529089 C17.0560804,11.2551311 16.6747431,11.2684646 15.6907329,11.3129095 C14.6507221,11.3606878 14.0860495,11.5340229 13.7100456,11.6806911 C13.2122626,11.8744709 12.8567034,12.1055844 12.4833661,12.4789217 C12.1100289,12.8522589 11.878471,13.2078181 11.6851356,13.7056011 C11.5391341,14.081605 11.3653545,14.6460553 11.3177984,15.6860662 C11.3086714,15.8868619 11.3008482,16.0625157 11.2941542,16.2318237 L11.2866523,16.4331503 C11.2657056,17.0352102 11.2584887,17.6524692 11.2568542,19.1618854 L11.2568542,20.8281713 C11.2591244,22.9248865 11.2721631,23.3017328 11.3177984,24.3057115 C11.3651323,25.3457224 11.5391341,25.9101727 11.6851356,26.2857321 C11.8789154,26.7837373 12.1100289,27.1384077 12.4833661,27.5117449 C12.8567034,27.8850821 13.2122626,28.1161957 13.7100456,28.309531 C14.0862717,28.4555325 14.6507221,28.6293121 15.6907329,28.6773126 C16.6947116,28.722948 17.0713808,28.7366953 19.1678998,28.7391173 L20.8340433,28.7391173 C22.3434504,28.7373735 22.9614416,28.7297586 23.5639121,28.7085977 L23.7653623,28.7010318 C23.9347609,28.6942912 24.1104714,28.6864397 24.3112671,28.6773126 C25.351278,28.6297566 25.9161727,28.4564214 26.2917322,28.3097532 C26.7897374,28.1164179 27.1441855,27.8853044 27.5175228,27.5119671 C27.89086,27.1388521 28.1224179,26.784404 28.3157533,26.286621 C28.4617548,25.9110616 28.6355344,25.3466112 28.6830904,24.3066004 C28.7305513,23.2624626 28.7435219,22.8966311 28.7451327,20.5704723 L28.7451327,19.424861 C28.7439556,17.7249757 28.736712,17.0719516 28.7143755,16.436067 L28.7068096,16.2346301 C28.7000691,16.0652391 28.6922175,15.8895286 28.6830904,15.6887329 C28.6357566,14.648722 28.4617548,14.0842717 28.3157533,13.7087122 C28.1219735,13.2109293 27.89086,12.85537 27.5175228,12.4820328 C27.1444078,12.1086956 26.7895152,11.8775821 26.2917322,11.6842467 C25.9157283,11.5382452 25.351278,11.3644656 24.3112671,11.3169096 C24.1104317,11.3077825 23.9346957,11.2999593 23.765282,11.2932653 L23.5638184,11.2857634 C22.961321,11.2648167 22.3434179,11.2575998 20.8340365,11.2559653 L19.0441012,11.2555756 Z" id="Combined-Shape" fill="#000000"></path>
                <path d="M25.6948371,13.0267051 C24.9881631,13.0267051 24.4148238,13.5993778 24.4148238,14.306274 C24.4148238,15.0129481 24.9881631,15.5862874 25.6948371,15.5862874 C26.4015111,15.5862874 26.9748504,15.0129481 26.9748504,14.306274 C26.9748504,13.5996 26.4015111,13.0262607 25.6948371,13.0262607 L25.6948371,13.0267051 Z" id="Shape" fill="#000000"></path>
                <path d="M20.0007778,14.5222763 C23.0259204,14.5222763 25.477946,16.9749685 25.477946,20.0001111 C25.477946,23.0252537 23.0261426,25.4768348 20.001,25.4768348 C16.9758574,25.4768348 14.5231652,23.0252537 14.5231652,20.0001111 C14.5231652,16.9749685 16.9758574,14.5222763 20.001,14.5222763 Z M20.001,16.4445185 C18.0372018,16.4445185 16.4454074,18.0363129 16.4454074,20.0001111 C16.4454074,21.9636871 18.0372018,23.5557037 20.001,23.5557037 C21.964576,23.5557037 23.5565926,21.9636871 23.5565926,20.0001111 C23.5565926,18.0363129 21.964576,16.4445185 20.001,16.4445185 Z" id="Combined-Shape" fill="#000000"></path>
            </g>
        </g>
    </g>
</svg>